HIERARCHY
ROOT mixamorig:Hips
{
	OFFSET 0.000000 201.639420 0.000000
	CHANNELS 6 Xposition Yposition Zposition Xrotation Yrotation Zrotation
	JOINT mixamorig:Spine
	{
		OFFSET 0.006200 19.524994 -2.481800
		CHANNELS 3 Xrotation Yrotation Zrotation
		JOINT mixamorig:Spine1
		{
			OFFSET -0.000900 22.835007 -2.825400
			CHANNELS 3 Xrotation Yrotation Zrotation
			JOINT mixamorig:Spine2
			{
				OFFSET -0.020600 26.552490 -3.193300
				CHANNELS 3 Xrotation Yrotation Zrotation
				JOINT mixamorig:Neck
				{
					OFFSET -0.060000 30.701813 1.352200
					CHANNELS 3 Xrotation Yrotation Zrotation
					JOINT mixamorig:Head
					{
						OFFSET -0.087200 22.547607 3.670900
						CHANNELS 3 Xrotation Yrotation Zrotation
						JOINT mixamorig:HeadTop_End
						{
							OFFSET -0.830600 40.355194 7.893500
							CHANNELS 3 Xrotation Yrotation Zrotation
							End Site
							{
								OFFSET 0.000000 30.592346 0.000000
							}
						}
						JOINT mixamorig:RightEye
						{
							OFFSET -6.302100 18.118591 16.197100
							CHANNELS 3 Xrotation Yrotation Zrotation
							End Site
							{
								OFFSET 0.000000 30.592346 0.000000
							}
						}
						JOINT mixamorig:LeftEye
						{
							OFFSET 6.741500 18.382690 16.401899
							CHANNELS 3 Xrotation Yrotation Zrotation
							End Site
							{
								OFFSET 0.000000 30.592346 0.000000
							}
						}
					}
				}
				JOINT mixamorig:LeftShoulder
				{
					OFFSET 11.924900 18.230499 1.425400
					CHANNELS 3 Xrotation Yrotation Zrotation
					JOINT mixamorig:LeftArm
					{
						OFFSET 25.435989 -0.697632 -5.229300
						CHANNELS 3 Xrotation Yrotation Zrotation
						JOINT mixamorig:LeftForeArm
						{
							OFFSET 54.684776 0.000000 0.000000
							CHANNELS 3 Xrotation Yrotation Zrotation
							JOINT mixamorig:LeftHand
							{
								OFFSET 55.098175 0.000000 0.000000
								CHANNELS 3 Xrotation Yrotation Zrotation
								JOINT mixamorig:LeftHandMiddle1
								{
									OFFSET 23.369751 0.000000 0.000000
									CHANNELS 3 Xrotation Yrotation Zrotation
									JOINT mixamorig:LeftHandMiddle2
									{
										OFFSET 6.378677 0.000000 0.000000
										CHANNELS 3 Xrotation Yrotation Zrotation
										JOINT mixamorig:LeftHandMiddle3
										{
											OFFSET 6.148331 0.000000 0.000000
											CHANNELS 3 Xrotation Yrotation Zrotation
											JOINT mixamorig:LeftHandMiddle4
											{
												OFFSET 6.582504 0.000000 0.000000
												CHANNELS 3 Xrotation Yrotation Zrotation
												End Site
												{
													OFFSET -1.168900 6.395691 1.028606
												}
											}
										}
									}
								}
								JOINT mixamorig:LeftHandThumb1
								{
									OFFSET 7.235672 -3.848206 5.434273
									CHANNELS 3 Xrotation Yrotation Zrotation
									JOINT mixamorig:LeftHandThumb2
									{
										OFFSET 6.568451 -3.792297 3.792300
										CHANNELS 3 Xrotation Yrotation Zrotation
										JOINT mixamorig:LeftHandThumb3
										{
											OFFSET 6.063080 -3.500519 3.500518
											CHANNELS 3 Xrotation Yrotation Zrotation
											JOINT mixamorig:LeftHandThumb4
											{
												OFFSET 4.793182 -2.767334 2.767349
												CHANNELS 3 Xrotation Yrotation Zrotation
												End Site
												{
													OFFSET 0.101639 6.054260 1.275483
												}
											}
										}
									}
								}
								JOINT mixamorig:LeftHandIndex1
								{
									OFFSET 23.101074 -0.309540 4.992809
									CHANNELS 3 Xrotation Yrotation Zrotation
									JOINT mixamorig:LeftHandIndex2
									{
										OFFSET 6.226883 0.000000 0.000000
										CHANNELS 3 Xrotation Yrotation Zrotation
										JOINT mixamorig:LeftHandIndex3
										{
											OFFSET 6.094330 0.000000 0.000000
											CHANNELS 3 Xrotation Yrotation Zrotation
											JOINT mixamorig:LeftHandIndex4
											{
												OFFSET 5.482605 0.000000 0.000000
												CHANNELS 3 Xrotation Yrotation Zrotation
												End Site
												{
													OFFSET -1.427902 5.233032 0.797164
												}
											}
										}
									}
								}
								JOINT mixamorig:LeftHandRing1
								{
									OFFSET 22.299240 0.021149 -3.964172
									CHANNELS 3 Xrotation Yrotation Zrotation
									JOINT mixamorig:LeftHandRing2
									{
										OFFSET 6.321869 0.000000 0.000000
										CHANNELS 3 Xrotation Yrotation Zrotation
										JOINT mixamorig:LeftHandRing3
										{
											OFFSET 5.899796 0.000000 0.000000
											CHANNELS 3 Xrotation Yrotation Zrotation
											JOINT mixamorig:LeftHandRing4
											{
												OFFSET 6.517899 0.000000 0.000000
												CHANNELS 3 Xrotation Yrotation Zrotation
												End Site
												{
													OFFSET -1.637299 6.232208 0.980890
												}
											}
										}
									}
								}
								JOINT mixamorig:LeftHandPinky1
								{
									OFFSET 20.463791 -0.302338 -8.562233
									CHANNELS 3 Xrotation Yrotation Zrotation
									JOINT mixamorig:LeftHandPinky2
									{
										OFFSET 6.908646 0.000000 0.000000
										CHANNELS 3 Xrotation Yrotation Zrotation
										JOINT mixamorig:LeftHandPinky3
										{
											OFFSET 4.622849 0.000000 0.000000
											CHANNELS 3 Xrotation Yrotation Zrotation
											JOINT mixamorig:LeftHandPinky4
											{
												OFFSET 5.216080 0.000000 0.000000
												CHANNELS 3 Xrotation Yrotation Zrotation
												End Site
												{
													OFFSET -0.606308 5.116241 0.814926
												}
											}
										}
									}
								}
							}
						}
					}
				}
				JOINT mixamorig:RightShoulder
				{
					OFFSET -12.001300 18.284088 1.348900
					CHANNELS 3 Xrotation Yrotation Zrotation
					JOINT mixamorig:RightArm
					{
						OFFSET -25.308500 -0.751312 -5.164599
						CHANNELS 3 Xrotation Yrotation Zrotation
						JOINT mixamorig:RightForeArm
						{
							OFFSET -54.684429 0.000000 0.000000
							CHANNELS 3 Xrotation Yrotation Zrotation
							JOINT mixamorig:RightHand
							{
								OFFSET -55.150291 0.000000 0.000000
								CHANNELS 3 Xrotation Yrotation Zrotation
								JOINT mixamorig:RightHandMiddle1
								{
									OFFSET -23.317566 0.000000 0.000000
									CHANNELS 3 Xrotation Yrotation Zrotation
									JOINT mixamorig:RightHandMiddle2
									{
										OFFSET -6.378403 0.000000 0.000000
										CHANNELS 3 Xrotation Yrotation Zrotation
										JOINT mixamorig:RightHandMiddle3
										{
											OFFSET -6.148193 0.000000 0.000000
											CHANNELS 3 Xrotation Yrotation Zrotation
											JOINT mixamorig:RightHandMiddle4
											{
												OFFSET -6.583389 0.000000 0.000000
												CHANNELS 3 Xrotation Yrotation Zrotation
												End Site
												{
													OFFSET 1.171692 6.395905 1.029786
												}
											}
										}
									}
								}
								JOINT mixamorig:RightHandThumb1
								{
									OFFSET -7.190521 -3.860474 5.435846
									CHANNELS 3 Xrotation Yrotation Zrotation
									JOINT mixamorig:RightHandThumb2
									{
										OFFSET -6.567429 -3.791718 3.791708
										CHANNELS 3 Xrotation Yrotation Zrotation
										JOINT mixamorig:RightHandThumb3
										{
											OFFSET -6.062469 -3.500153 3.500166
											CHANNELS 3 Xrotation Yrotation Zrotation
											JOINT mixamorig:RightHandThumb4
											{
												OFFSET -4.792618 -2.767029 2.767022
												CHANNELS 3 Xrotation Yrotation Zrotation
												End Site
												{
													OFFSET -0.100327 6.053253 1.276754
												}
											}
										}
									}
								}
								JOINT mixamorig:RightHandIndex1
								{
									OFFSET -23.048981 -0.310791 4.992554
									CHANNELS 3 Xrotation Yrotation Zrotation
									JOINT mixamorig:RightHandIndex2
									{
										OFFSET -6.227539 0.000000 0.000000
										CHANNELS 3 Xrotation Yrotation Zrotation
										JOINT mixamorig:RightHandIndex3
										{
											OFFSET -6.095047 0.000000 0.000000
											CHANNELS 3 Xrotation Yrotation Zrotation
											JOINT mixamorig:RightHandIndex4
											{
												OFFSET -5.484772 0.000000 0.000000
												CHANNELS 3 Xrotation Yrotation Zrotation
												End Site
												{
													OFFSET 1.420593 5.237305 0.797056
												}
											}
										}
									}
								}
								JOINT mixamorig:RightHandRing1
								{
									OFFSET -22.246323 0.020569 -3.963762
									CHANNELS 3 Xrotation Yrotation Zrotation
									JOINT mixamorig:RightHandRing2
									{
										OFFSET -6.322128 0.000000 0.000000
										CHANNELS 3 Xrotation Yrotation Zrotation
										JOINT mixamorig:RightHandRing3
										{
											OFFSET -5.900024 0.000000 0.000000
											CHANNELS 3 Xrotation Yrotation Zrotation
											JOINT mixamorig:RightHandRing4
											{
												OFFSET -6.518356 0.000000 0.000000
												CHANNELS 3 Xrotation Yrotation Zrotation
												End Site
												{
													OFFSET 1.636398 6.232697 0.982186
												}
											}
										}
									}
								}
								JOINT mixamorig:RightHandPinky1
								{
									OFFSET -20.411011 -0.303314 -8.561701
									CHANNELS 3 Xrotation Yrotation Zrotation
									JOINT mixamorig:RightHandPinky2
									{
										OFFSET -6.907349 0.000000 0.000000
										CHANNELS 3 Xrotation Yrotation Zrotation
										JOINT mixamorig:RightHandPinky3
										{
											OFFSET -4.623840 0.000000 0.000000
											CHANNELS 3 Xrotation Yrotation Zrotation
											JOINT mixamorig:RightHandPinky4
											{
												OFFSET -5.218353 0.000000 0.000000
												CHANNELS 3 Xrotation Yrotation Zrotation
												End Site
												{
													OFFSET 0.602097 5.118835 0.816273
												}
											}
										}
									}
								}
							}
						}
					}
				}
			}
		}
	}
	JOINT mixamorig:LeftUpLeg
	{
		OFFSET 18.168400 -13.561905 -0.039000
		CHANNELS 3 Xrotation Yrotation Zrotation
		JOINT mixamorig:LeftLeg
		{
			OFFSET 0.577358 -80.825211 -3.695000
			CHANNELS 3 Xrotation Yrotation Zrotation
			JOINT mixamorig:LeftFoot
			{
				OFFSET -0.577356 -83.370262 -6.520700
				CHANNELS 3 Xrotation Yrotation Zrotation
				JOINT mixamorig:LeftToeBase
				{
					OFFSET 0.750401 -20.798306 25.135401
					CHANNELS 3 Xrotation Yrotation Zrotation
					JOINT mixamorig:LeftToe_End
					{
						OFFSET -0.000500 0.001200 19.917799
						CHANNELS 3 Xrotation Yrotation Zrotation
						End Site
						{
							OFFSET 0.000000 19.917805 0.000000
						}
					}
				}
			}
		}
	}
	JOINT mixamorig:RightUpLeg
	{
		OFFSET -18.162500 -13.585098 -0.041000
		CHANNELS 3 Xrotation Yrotation Zrotation
		JOINT mixamorig:RightLeg
		{
			OFFSET -0.595024 -80.945297 -3.631900
			CHANNELS 3 Xrotation Yrotation Zrotation
			JOINT mixamorig:RightFoot
			{
				OFFSET 0.595024 -83.218193 -6.561200
				CHANNELS 3 Xrotation Yrotation Zrotation
				JOINT mixamorig:RightToeBase
				{
					OFFSET -0.753601 -20.807106 25.115000
					CHANNELS 3 Xrotation Yrotation Zrotation
					JOINT mixamorig:RightToe_End
					{
						OFFSET 0.000299 0.001700 19.918200
						CHANNELS 3 Xrotation Yrotation Zrotation
						End Site
						{
							OFFSET 0.000000 19.918203 0.000000
						}
					}
				}
			}
		}
	}
}
MOTION
Frames: 4
Frame Time: 0.033333
0.374573 200.312546 -0.375416 -3.753457 -5.224857 -3.507154 3.303672 1.540230 2.479800 1.151889 0.343714 1.552798 1.126014 0.368854 1.555886 5.626310 -0.082462 0.454683 -7.563343 1.375810 -0.080567 -0.000000 -0.000000 0.000000 -0.000000 -0.000000 0.000000 -0.000000 -0.000000 0.000000 1.046041 -17.442271 -12.330796 3.915469 -19.989524 -69.765492 -0.000007 -1.459362 0.000018 -33.230390 -1.364811 -6.186629 -0.076311 2.665776 -15.696840 0.268799 1.755848 -17.406044 0.300528 1.853978 -18.413350 -0.000003 0.000000 -0.000001 -0.663007 2.160312 4.832504 11.853529 25.421629 17.058312 -13.813933 3.537277 9.035995 0.000002 0.000001 -0.000000 0.019865 -0.969580 -7.593536 0.267871 1.752890 -17.375714 0.057684 0.820952 -8.038017 -0.000001 -0.000001 -0.000001 0.136907 3.641779 -21.133512 0.386623 2.094790 -20.911901 0.283040 1.800634 -17.865004 -0.000001 0.000001 0.000003 0.924843 5.557389 -27.127819 0.268795 1.755840 -17.405894 0.241906 1.667703 -16.505898 0.000000 -0.000002 0.000000 1.203181 15.343658 14.705976 13.158861 27.555133 58.785164 -0.000004 6.693733 -0.000003 -20.179082 -0.514103 6.782800 -0.136219 -2.205107 14.998858 0.214444 -1.398350 17.436882 0.239765 -1.476519 18.446278 0.000001 -0.000000 0.000004 -1.665246 -0.174481 -4.219034 12.699397 -29.824485 -16.132973 -15.549416 -3.559393 -12.707116 -0.000002 -0.000001 -0.000001 0.038256 1.262261 6.823701 0.213718 -1.396022 17.407055 0.046030 -0.653850 8.053221 -0.000000 0.000000 -0.000001 0.030603 -3.075770 20.451026 0.308447 -1.668281 20.948532 0.225830 -1.434041 17.897090 0.000001 -0.000001 -0.000001 0.739094 -4.890109 26.473033 0.214460 -1.398377 17.437260 0.193005 -1.328185 16.535818 -0.000001 0.000001 0.000000 -13.012496 14.262770 10.836306 13.096351 2.098438 4.210308 2.619534 0.409456 -7.303471 -4.928529 0.000003 -0.000002 0.000000 -0.000001 -0.000000 -0.243953 -10.396287 3.110971 6.110700 -9.762776 -3.279711 -1.645448 -1.554493 2.850902 -7.281970 0.000004 -0.000001 -0.000000 0.000002 0.000000 
0.378222 200.270004 -0.302659 -3.873502 -5.263703 -3.534337 3.322206 1.539885 2.488181 1.175153 0.343714 1.575221 1.149187 0.368853 1.577287 5.755990 -0.085334 0.478609 -7.450887 1.354954 -0.099324 0.000000 0.000000 -0.000000 0.000000 0.000000 -0.000000 0.000000 0.000000 -0.000000 1.048828 -17.492548 -12.334006 3.950753 -20.105563 -69.797000 0.000000 -1.464612 -0.000009 -33.298323 -1.361769 -6.180691 -0.008086 2.900049 -15.553782 0.268799 1.755849 -17.406017 0.300531 1.853985 -18.413367 -0.000001 -0.000001 0.000003 0.443846 2.116123 3.985938 11.657844 25.220036 17.823607 -13.910258 3.753289 9.009417 0.000000 -0.000001 -0.000002 0.176765 -0.771389 -7.613691 0.267873 1.752889 -17.375742 0.057676 0.820953 -8.038007 0.000001 0.000000 -0.000004 0.186722 3.770010 -21.111514 0.384254 2.088571 -20.846910 0.280775 1.793585 -17.792691 -0.000001 0.000000 -0.000003 1.027772 5.758164 -27.393264 0.266858 1.749663 -17.342656 0.239800 1.660570 -16.433200 -0.000001 -0.000001 -0.000001 1.189378 15.419053 14.778878 13.442344 28.029011 58.460962 0.000008 6.760182 -0.000008 -19.879691 -0.506682 6.844522 -0.115049 -2.313204 15.342446 0.215355 -1.401240 17.474054 0.240688 -1.479271 18.481821 -0.000002 0.000002 0.000003 -1.302456 -0.132570 -3.835047 12.553566 -29.784556 -16.556090 -15.669012 -3.684740 -12.808320 0.000000 0.000001 0.000003 0.035108 1.193786 6.979647 0.211531 -1.389020 17.316826 0.045003 -0.646552 7.962797 -0.000003 0.000001 -0.000000 0.060476 -3.179163 21.027292 0.309967 -1.672267 21.000892 0.227135 -1.438093 17.949382 0.000002 -0.000002 0.000004 0.788061 -4.970837 27.172178 0.212166 -1.391065 17.343087 0.190866 -1.320922 16.442763 0.000000 0.000000 -0.000003 -13.028205 14.313869 10.908805 13.402914 2.084417 4.213665 2.456484 0.409126 -7.319298 -4.928528 -0.000001 0.000003 -0.000000 -0.000001 0.000000 -0.250577 -10.353615 3.108943 6.407144 -9.790754 -3.301336 -1.815107 -1.546396 2.898528 -7.281969 0.000000 -0.000000 -0.000000 0.000000 -0.000000 
0.391952 200.219116 -0.188505 -4.032765 -5.312745 -3.559548 3.328767 1.539383 2.496749 1.175390 0.349931 1.601965 1.149571 0.378073 1.604559 5.974184 -0.100809 0.488342 -7.343756 1.310682 -0.137302 0.000000 -0.000000 -0.000000 0.000000 -0.000000 -0.000000 0.000000 -0.000000 -0.000000 1.050752 -17.610828 -12.343284 4.075922 -20.328619 -69.830003 0.000012 -1.471191 0.000017 -33.171510 -1.159190 -6.188869 0.084288 3.237154 -15.636989 0.268796 1.755849 -17.406028 0.300529 1.853982 -18.413358 -0.000002 -0.000001 0.000000 2.080996 1.975740 2.692279 11.436814 24.977705 18.717189 -14.077448 4.044539 9.081361 0.000002 0.000001 -0.000002 0.402882 -0.441427 -7.961724 0.267706 1.752357 -17.370219 0.057606 0.820396 -8.032523 -0.000001 -0.000000 -0.000001 0.275441 4.004092 -21.283360 0.381021 2.080063 -20.757971 0.277644 1.783812 -17.692480 -0.000002 0.000001 0.000000 1.157043 6.009963 -27.789482 0.264146 1.740954 -17.253618 0.236933 1.650815 -16.333923 0.000001 -0.000001 -0.000000 1.182933 15.489657 14.809715 14.005364 28.448143 57.657295 0.000003 6.853411 -0.000002 -19.546540 -0.321290 6.788733 -0.088016 -2.372017 14.818212 0.216766 -1.405684 17.531386 0.242160 -1.483677 18.538918 0.000001 -0.000001 0.000000 -0.622592 0.101653 -3.313112 12.456192 -29.761265 -16.838481 -15.771868 -3.776914 -12.970837 -0.000001 0.000001 0.000004 0.087541 1.309866 6.057628 0.208336 -1.378729 17.184599 0.043536 -0.636029 7.832239 0.000003 -0.000001 0.000001 0.097792 -3.282010 21.186963 0.309905 -1.672085 20.998576 0.227076 -1.437908 17.947044 0.000001 0.000002 0.000005 0.823090 -5.039418 27.461173 0.213409 -1.395048 17.394504 0.192088 -1.325086 16.496123 0.000001 -0.000001 0.000002 -13.003013 14.368473 10.970342 13.740676 2.086158 4.226614 2.252049 0.408240 -7.340088 -4.917977 0.000005 -0.000000 -0.000000 -0.000001 0.000000 -0.236080 -10.324473 3.075412 6.772218 -9.783273 -3.297496 -2.031801 -1.540407 2.948750 -7.281969 0.000004 0.000001 0.000000 -0.000001 0.000000 
0.418457 200.168411 -0.024491 -4.232195 -5.377565 -3.574108 3.315628 1.538707 2.506926 1.138931 0.362049 1.634764 1.113259 0.389430 1.637994 6.309555 -0.124127 0.474812 -7.250217 1.245252 -0.248245 -0.000000 0.000000 -0.000000 -0.000000 0.000000 -0.000000 -0.000000 0.000000 -0.000000 1.058345 -17.826811 -12.330062 4.423722 -20.503668 -69.599532 0.000005 -1.711709 0.000003 -32.765640 -0.772217 -6.146448 0.184995 3.602761 -15.866087 0.268796 1.755849 -17.406028 0.300525 1.853980 -18.413350 -0.000001 0.000001 0.000001 3.525870 1.640713 1.432403 11.340435 24.868195 19.116514 -14.217935 4.217984 9.237974 0.000001 -0.000001 0.000001 0.614832 -0.108849 -8.530017 0.266877 1.749732 -17.343394 0.057219 0.817673 -8.005713 -0.000000 0.000000 -0.000001 0.369929 4.249602 -21.533013 0.377293 2.070220 -20.655163 0.274122 1.772733 -17.578899 -0.000000 -0.000001 0.000004 1.278831 6.235746 -28.224884 0.260982 1.730728 -17.149020 0.233720 1.639829 -16.222222 0.000000 -0.000002 0.000001 1.185974 15.501867 14.791751 14.781861 28.917757 56.471861 -0.000010 6.929753 -0.000016 -19.152492 0.028122 6.656723 -0.048794 -2.426440 13.463905 0.216053 -1.403454 17.502604 0.241618 -1.482053 18.517900 0.000003 -0.000000 0.000001 0.710036 0.810881 -2.199505 12.339777 -29.730386 -17.177603 -15.781779 -3.806661 -13.135723 0.000001 -0.000002 0.000001 0.210714 1.465518 4.160620 0.198049 -1.345048 16.751939 0.038899 -0.601246 7.401491 0.000002 -0.000001 -0.000001 0.157814 -3.442603 21.393464 0.308175 -1.667562 20.939239 0.225603 -1.433397 17.888648 -0.000002 -0.000004 -0.000003 0.868327 -5.100230 28.280344 0.221997 -1.422157 17.743708 0.200144 -1.351971 16.840934 -0.000001 0.000001 -0.000001 -12.898132 14.424139 11.002878 14.062457 2.109307 4.246668 2.027182 0.406230 -7.359183 -4.911657 -0.000010 -0.000001 0.000001 -0.000000 0.000000 -0.189021 -10.317554 3.003815 7.184688 -9.734085 -3.272010 -2.286581 -1.535060 2.980478 -7.281971 0.000001 0.000000 0.000000 -0.000001 -0.000000 
